<svg width="596" height="80" viewBox="0 0 596 80" fill="none" xmlns="http://www.w3.org/2000/svg">
<path d="M30.4199 79.1211V16.8652L38.3057 13.1299H38.7207V75.3857L30.835 79.1211H30.4199ZM53.2471 79.1211V44.2578C53.2471 35.957 57.3975 31.8066 65.6982 31.8066H75.2441C83.5449 31.8066 87.6953 35.957 87.6953 44.2578V75.3857L79.8096 79.1211H79.3945V44.2578C79.3945 40.9375 78.0111 39.2773 75.2441 39.2773H65.6982C62.9313 39.2773 61.5479 40.9375 61.5479 44.2578V75.3857L53.6621 79.1211H53.2471ZM105.625 79.1211V39.3604H94.9585V38.9453L98.3203 31.8066H105.625V16.8652L113.511 13.1299H113.926V31.8066H124.592V32.2217L121.23 39.3604H113.926V75.3857L106.04 79.1211H105.625ZM144.307 69.9902H153.853C156.619 69.9902 158.003 68.3301 158.003 65.0098V44.2578C158.003 40.9375 156.619 39.2773 153.853 39.2773H144.307C141.54 39.2773 140.156 40.9375 140.156 44.2578V65.0098C140.156 68.3301 141.54 69.9902 144.307 69.9902ZM144.307 77.4609C136.006 77.4609 131.855 73.3105 131.855 65.0098V44.2578C131.855 35.957 136.006 31.8066 144.307 31.8066H153.853C162.153 31.8066 166.304 35.957 166.304 44.2578V65.0098C166.304 73.3105 162.153 77.4609 153.853 77.4609H144.307ZM217.437 79.1211V39.3604H206.77V38.9453L210.132 31.8066H217.437V16.8652L225.322 13.1299H225.737V31.8066H236.404V32.2217L233.042 39.3604H225.737V75.3857L217.852 79.1211H217.437ZM245.742 79.1211V16.8652L253.628 13.1299H254.043V33.0933C255.26 32.2355 256.644 31.8066 258.193 31.8066H267.739C276.04 31.8066 280.19 35.957 280.19 44.2578V75.3857L272.305 79.1211H271.89V44.2578C271.89 40.9375 270.506 39.2773 267.739 39.2773H258.193C255.426 39.2773 254.043 40.9375 254.043 44.2578V75.3857L246.157 79.1211H245.742ZM305.093 77.4609C296.792 77.4609 292.642 73.3105 292.642 65.0098V44.2578C292.642 35.957 296.792 31.8066 305.093 31.8066H314.639C322.939 31.8066 327.09 35.957 327.09 44.2578V46.4575L301.067 66.5869C301.454 68.8558 302.796 69.9902 305.093 69.9902H314.639C317.406 69.9902 318.789 68.3301 318.789 65.0098V62.8101L326.675 59.0747H327.09V65.0098C327.09 73.3105 322.939 77.4609 314.639 77.4609H305.093ZM300.942 57.9126L318.748 43.5522C318.582 40.7023 317.212 39.2773 314.639 39.2773H305.093C302.326 39.2773 300.942 40.9375 300.942 44.2578V57.9126ZM374.819 79.1211V16.8652L379.219 14.79H405.532V15.2051L402.17 22.3438H383.12V42.3486H405.532V42.7637L402.17 49.9023H383.12V75.3857L375.234 79.1211H374.819ZM421.304 79.1211V16.8652L429.189 13.1299H429.604V75.3857L421.719 79.1211H421.304ZM454.507 69.9902H463.223C465.99 69.9902 467.373 68.3301 467.373 65.0098V59.3237C467.373 56.0034 465.99 54.3433 463.223 54.3433H454.507C451.74 54.3433 450.356 56.0034 450.356 59.3237V65.0098C450.356 68.3301 451.74 69.9902 454.507 69.9902ZM454.507 77.4609C446.206 77.4609 442.056 73.3105 442.056 65.0098V59.3237C442.056 51.0229 446.206 46.8726 454.507 46.8726H463.223C464.661 46.8726 466.045 47.2876 467.373 48.1177V44.2578C467.373 40.9375 465.99 39.2773 463.223 39.2773H448.364V38.8623L451.685 31.8066H463.223C471.523 31.8066 475.674 35.957 475.674 44.2578V75.3857L467.788 79.1211H467.373V76.2158C466.322 77.0459 464.938 77.4609 463.223 77.4609H454.507ZM488.125 79.1211V44.2578C488.125 35.957 492.275 31.8066 500.576 31.8066H510.122C513.94 31.8066 516.707 32.8304 518.423 34.8779C520.249 32.8304 523.016 31.8066 526.724 31.8066H536.27C544.57 31.8066 548.721 35.957 548.721 44.2578V75.3857L540.835 79.1211H540.42V44.2578C540.42 40.9375 539.036 39.2773 536.27 39.2773H526.724C523.957 39.2773 522.573 40.9375 522.573 44.2578V75.3857L514.688 79.1211H514.272V44.2578C514.272 40.9375 512.889 39.2773 510.122 39.2773H500.576C497.809 39.2773 496.426 40.9375 496.426 44.2578V75.3857L488.54 79.1211H488.125ZM573.623 77.4609C565.322 77.4609 561.172 73.3105 561.172 65.0098V44.2578C561.172 35.957 565.322 31.8066 573.623 31.8066H583.169C591.47 31.8066 595.62 35.957 595.62 44.2578V46.4575L569.597 66.5869C569.985 68.8558 571.326 69.9902 573.623 69.9902H583.169C585.936 69.9902 587.319 68.3301 587.319 65.0098V62.8101L595.205 59.0747H595.62V65.0098C595.62 73.3105 591.47 77.4609 583.169 77.4609H573.623ZM569.473 57.9126L587.278 43.5522C587.112 40.7023 585.742 39.2773 583.169 39.2773H573.623C570.856 39.2773 569.473 40.9375 569.473 44.2578V57.9126Z" fill="#D9D9D9"/>
<path d="M22.1191 75.2637H21.9727L19.4531 74.0771L12.6563 67.0605C10.3516 64.7168 8.6377 63.5449 7.51465 63.5449H5.12695C3.4668 63.5449 2.63672 64.2773 2.63672 65.7422V69.9902C2.63672 71.4551 3.4668 72.1875 5.12695 72.1875H6.73828L8.05664 74.9707V75.1172H5.12695C1.70898 75.1172 0 73.4082 0 69.9902L0 65.7422C0 62.3242 1.70898 60.6152 5.12695 60.6152H7.66113C9.5166 60.6152 11.5527 61.8701 13.7695 64.3799L19.4531 70.5469L19.4531 60.2783H19.5996L22.1191 61.4648L22.1191 75.2637ZM19.4824 49.8633V45.3223C19.4824 43.8574 18.6523 43.125 16.9922 43.125L5.12695 43.125C3.4668 43.125 2.63672 43.8574 2.63672 45.3223L2.63672 49.8633C2.63672 51.3281 3.4668 52.0605 5.12695 52.0605H16.9922C18.6523 52.0605 19.4824 51.3281 19.4824 49.8633ZM22.1191 49.8633C22.1191 53.2813 20.4102 54.9902 16.9922 54.9902H5.12695C1.70898 54.9902 0 53.2812 0 49.8633L0 45.3223C0 41.9043 1.70898 40.1953 5.12695 40.1953L16.9922 40.1953C20.4102 40.1953 22.1191 41.9043 22.1191 45.3223V49.8633ZM22.1191 35.0684H21.9727L19.4531 33.8818L12.6563 26.8652C10.3516 24.5215 8.6377 23.3496 7.51465 23.3496H5.12695C3.4668 23.3496 2.63672 24.082 2.63672 25.5469V29.7949C2.63672 31.2598 3.4668 31.9922 5.12695 31.9922H6.73828L8.05664 34.7754V34.9219H5.12695C1.70898 34.9219 0 33.2129 0 29.7949L0 25.5469C0 22.1289 1.70898 20.4199 5.12695 20.4199H7.66113C9.5166 20.4199 11.5527 21.6748 13.7695 24.1846L19.4531 30.3516V20.083H19.5996L22.1191 21.2695L22.1191 35.0684ZM19.4824 9.66797V5.12695C19.4824 3.66211 18.6523 2.92969 16.9922 2.92969H13.2129C11.5527 2.92969 10.7227 3.66211 10.7227 5.12695V9.66797C10.7227 11.1328 11.5527 11.8652 13.2129 11.8652H16.9922C18.6523 11.8652 19.4824 11.1328 19.4824 9.66797ZM22.1191 9.66797C22.1191 13.0859 20.4102 14.7949 16.9922 14.7949L5.12695 14.7949C1.70898 14.7949 0 13.0859 0 9.66797L0 5.41992C0 2.00195 1.70898 0.292969 5.12695 0.292969H5.56641L6.88477 3.07617V3.22266H5.12695C3.4668 3.22266 2.63672 3.95508 2.63672 5.41992V9.66797C2.63672 11.1328 3.4668 11.8652 5.12695 11.8652H8.70117C8.29102 11.1816 8.08594 10.4492 8.08594 9.66797V5.12695C8.08594 1.70898 9.79492 0 13.2129 0H16.9922C20.4102 0 22.1191 1.70898 22.1191 5.12695V9.66797Z" fill="#D9D9D9"/>
</svg>
